<svg width="302" height="100" viewBox="0 0 302 100" fill="none" xmlns="http://www.w3.org/2000/svg">
<g clip-path="url(#clip0_158_4461)">
<path d="M119.672 36.3641L114.978 42.4977L112.962 36.3641H100.275L95.1452 45.0875L93.8909 36.3641H86.4719L82.4628 54.5461H87.9722L90.3714 43.615L92.0372 54.5461H94.4901L100.957 43.615L98.5551 54.5461H104.065L107.707 38.0243L111.434 47.322L109.851 54.5461H115.361L116.944 47.322L126.136 36.3641H119.672ZM207.865 36.3641L203.172 42.4977L201.155 36.3641H191.281L185.362 42.7971L186.78 36.3641H181.271L180.356 40.5157C179.129 38.1539 176.618 36.0646 172.255 36.0646C168.154 36.0646 164.592 37.9774 162.721 41.1682L163.788 36.3641H158.195L155.85 46.9399C155.467 48.685 154.405 50.0749 152.386 50.0749C150.367 50.0749 149.549 48.8481 149.522 47.5946C149.522 47.322 149.578 46.8036 149.658 46.4505L151.894 36.3641H146.304L144.149 46.0952C143.93 47.0762 143.849 48.0035 143.849 48.2202C143.849 52.1194 146.494 54.8723 152.031 54.8723C157.909 54.8723 160.36 51.5764 161.353 47.3175C161.768 51.9809 165.874 54.8723 170.811 54.8723C172.845 54.8723 175.598 54.2668 177.769 52.2423L177.262 54.5461H182.771L183.889 49.5028L185.333 47.9767L188.144 54.5461H194.581L189.562 44.8149L196.091 38.4935L199.628 47.322L198.045 54.5461H203.554L205.137 47.322L214.33 36.3641H207.865ZM178.232 50.1419L174.793 47.9208C174.165 49.0939 172.528 50.0212 171.11 50.0212C168.602 50.0212 167.018 48.2202 167.018 46.1489C167.018 43.4228 169.064 40.9157 172.011 40.9157C173.919 40.9157 175.365 42.062 175.692 43.7513L179.936 42.4173L178.232 50.1419ZM251.61 36.3641H244.683L238.234 47.3019C238.545 46.2673 238.682 45.2149 238.682 44.2138C238.682 39.3896 234.482 36.3641 230.444 36.3641H222.453L218.444 54.5461H226.545C230.992 54.5461 233.975 53.2121 235.869 51.315L233.964 54.5461H240.209L241.436 52.1999H248.392L248.609 54.5461H254.311L251.61 36.3641ZM227.553 49.7486H225.017L226.898 41.1615H229.436C231.564 41.1615 232.982 42.6877 232.982 44.6227C232.982 47.4024 230.99 49.7486 227.553 49.7486ZM243.865 47.6214L247.382 40.9425L248.01 47.6214H243.865ZM86.539 60.4988L83.7373 65.4861L83.1246 60.4988H81.1927L82.2727 67.4145H84.5132L88.6542 60.4988H86.5367H86.539ZM93.6852 60.3848C91.3374 60.3848 89.5956 62.1679 89.5956 64.3979C89.5956 66.2972 91.1205 67.5419 93.1016 67.5419C95.4493 67.5419 97.1912 65.7476 97.1912 63.5064C97.1912 61.6294 95.6662 60.3848 93.6852 60.3848ZM93.2067 65.9665C92.1803 65.9665 91.4537 65.2917 91.4537 64.284C91.4537 63.0103 92.3682 61.9601 93.5823 61.9601C94.6086 61.9601 95.3353 62.6349 95.3353 63.6404C95.3353 64.9163 94.4208 65.9665 93.2067 65.9665ZM99.6105 60.501L99.2594 62.0562H101.2L100.026 67.4167H101.811L102.985 62.0562H104.925L105.268 60.501H99.6105ZM113.33 62.5232C113.33 61.2786 112.282 60.501 111.088 60.501H107.933L106.408 67.4167H108.192L108.711 65.0727H109.697L110.341 67.4167H112.313L111.484 64.97C112.501 64.6996 113.333 63.7566 113.333 62.5232H113.33ZM110.424 63.5578H109.042L109.384 62.0048H110.712C111.137 62.0048 111.47 62.2841 111.47 62.6997C111.47 63.2271 111.063 63.56 110.421 63.56L110.424 63.5578ZM121.237 62.0048L121.57 60.501H116.492L114.967 67.4167H120.043L120.376 65.9151H117.087L117.366 64.6705H120.573L120.904 63.1556H117.697L117.945 62.0048H121.235H121.237ZM132.971 60.501H130.731L126.599 67.4167H128.622L129.213 66.371H132.079L132.216 67.4167H134.062L132.974 60.501H132.971ZM130.015 64.8672L131.601 62.0048L131.943 64.8672H130.013H130.015ZM140.981 60.501H137.743L136.218 67.4167H138.002L138.51 65.1264H140.16C142.454 65.1264 143.129 63.4974 143.129 62.4807C143.129 61.3925 142.311 60.501 140.981 60.501ZM140.234 63.56H138.852L139.194 62.007H140.52C140.987 62.007 141.278 62.2752 141.278 62.6707C141.278 63.1779 140.882 63.5622 140.231 63.5622L140.234 63.56ZM149.225 60.501H145.987L144.462 67.4167H146.246L146.756 65.1264H148.406C150.7 65.1264 151.376 63.4974 151.376 62.4807C151.376 61.3925 150.555 60.501 149.225 60.501ZM148.478 63.56H147.098L147.438 62.007H148.766C149.234 62.007 149.524 62.2752 149.524 62.6707C149.524 63.1779 149.128 63.5622 148.476 63.5622L148.478 63.56ZM172.19 60.501L171.267 64.6996L169.386 60.501H167.548L166.023 67.4167H167.808L168.774 63.0193L170.735 67.4167H172.459L173.984 60.501H172.188H172.19ZM179.623 60.387C177.275 60.387 175.531 62.1701 175.531 64.4002C175.531 66.2995 177.058 67.5441 179.039 67.5441C181.387 67.5441 183.129 65.7498 183.129 63.5086C183.129 61.6316 181.604 60.387 179.623 60.387ZM179.144 65.9688C178.118 65.9688 177.391 65.294 177.391 64.2862C177.391 63.0126 178.303 61.9623 179.52 61.9623C180.546 61.9623 181.273 62.6372 181.273 63.6427C181.273 64.9186 180.358 65.9688 179.144 65.9688ZM185.548 60.5032L185.197 62.0584H187.138L185.964 67.419H187.748L188.922 62.0584H190.863L191.205 60.5032H185.548ZM199.268 62.5254C199.268 61.2808 198.219 60.5032 197.025 60.5032H193.87L192.345 67.419H194.13L194.648 65.075H195.635L196.278 67.419H198.251L197.421 64.9722C198.438 64.7018 199.27 63.7589 199.27 62.5254H199.268ZM196.361 63.56H194.979L195.321 62.007H196.65C197.074 62.007 197.405 62.2863 197.405 62.702C197.405 63.2293 197.001 63.5622 196.359 63.5622L196.361 63.56ZM207.174 62.007L207.505 60.5032H202.43L200.905 67.419H205.98L206.311 65.9174H203.022L203.304 64.6728H206.51L206.841 63.1578H203.635L203.883 62.007H207.172H207.174ZM220.114 60.5032L217.811 64.3622L217.221 60.5032H214.801L213.276 67.419H215.061L216.078 62.8137L216.805 67.419H217.592L220.362 62.8137L219.345 67.419H221.131L222.656 60.5032H220.114ZM225.581 60.5032L224.056 67.419H225.84L227.365 60.5032H225.581ZM232.454 63.1265C231.873 62.9187 231.428 62.7332 231.428 62.4316C231.428 62.1523 231.696 61.9042 232.175 61.9042C232.83 61.9042 233.7 62.1836 234.207 62.7645L235.276 61.5423C234.581 60.8049 233.503 60.4004 232.381 60.4004C230.543 60.4004 229.579 61.5937 229.579 62.5791C229.579 63.9265 230.885 64.3912 231.851 64.7264C232.452 64.9342 232.888 65.1197 232.888 65.4526C232.888 65.7208 232.66 66.0224 232.07 66.0224C231.144 66.0224 230.209 65.6068 229.713 64.9744L228.644 66.2302C229.288 67.0167 230.534 67.5463 231.945 67.5463C233.698 67.5463 234.755 66.4671 234.755 65.2113C234.755 63.9555 233.438 63.4483 232.452 63.1243L232.454 63.1265ZM240.381 63.1265C239.802 62.9187 239.355 62.7332 239.355 62.4316C239.355 62.1523 239.623 61.9042 240.101 61.9042C240.757 61.9042 241.626 62.1836 242.134 62.7645L243.203 61.5423C242.507 60.8049 241.43 60.4004 240.307 60.4004C238.469 60.4004 237.505 61.5937 237.505 62.5791C237.505 63.9265 238.813 64.3912 239.777 64.7264C240.379 64.9342 240.815 65.1197 240.815 65.4526C240.815 65.7208 240.587 66.0224 239.996 66.0224C239.073 66.0224 238.138 65.6068 237.64 64.9744L236.571 66.2302C237.215 67.0167 238.46 67.5463 239.871 67.5463C241.624 67.5463 242.682 66.4671 242.682 65.2113C242.682 63.9555 241.365 63.4483 240.379 63.1243L240.381 63.1265ZM246.192 60.5032L244.667 67.419H246.452L247.977 60.5032H246.192ZM253.824 60.3893C251.478 60.3893 249.734 62.1724 249.734 64.4024C249.734 66.3017 251.259 67.5463 253.24 67.5463C255.588 67.5463 257.332 65.752 257.332 63.5108C257.332 61.6339 255.805 60.3893 253.824 60.3893ZM253.345 65.971C252.319 65.971 251.592 65.2962 251.592 64.2884C251.592 63.0148 252.507 61.9646 253.721 61.9646C254.747 61.9646 255.474 62.6394 255.474 63.6449C255.474 64.9208 254.561 65.971 253.345 65.971ZM265.102 60.5055L264.176 64.7041L262.298 60.5055H260.46L258.935 67.4212H260.719L261.683 63.0237L263.646 67.4212H265.368L266.893 60.5055H265.1H265.102ZM161.25 63.4058L158.392 60.6708C158.213 60.4988 157.956 60.4384 157.719 60.5099L157.531 60.5658C157.283 60.6395 157.097 60.8451 157.053 61.0998L156.053 66.6659C156.047 66.7062 156.042 66.7464 156.042 66.7866C156.042 67.0771 156.23 67.3408 156.516 67.4346C156.724 67.5039 156.952 67.4681 157.131 67.343L161.174 64.4538C161.522 64.2035 161.56 63.703 161.25 63.4058ZM136.822 49.7553L139.766 36.3708H134.257L130.248 54.5528H142.658L143.722 49.7553H136.822ZM265.75 36.3708L261.059 42.5044L259.042 36.3708H253.121L257.513 47.3287L255.932 54.5528H261.442L263.025 47.3287L272.217 36.3708H265.75Z" fill="url(#paint0_linear_158_4461)"/>
<path fill-rule="evenodd" clip-rule="evenodd" d="M65.6663 54.7695V72.337L47.1859 86.2132L28.6966 72.337V54.7695C28.6966 54.7695 24.7658 51.4446 25.0207 44.2518C25.1347 41.0296 27.2477 40.223 27.2477 40.223V27.1311C27.2477 27.1311 33.1395 15.8291 47.1859 15.8291C61.2323 15.8291 67.1129 27.1311 67.1129 27.1311V40.223C67.1129 40.223 69.2259 41.0296 69.34 44.2518C69.5949 51.4468 65.6663 54.7695 65.6663 54.7695Z" fill="white"/>
<path fill-rule="evenodd" clip-rule="evenodd" d="M66.6993 42.6787C66.062 42.0128 65.1229 42.2787 65.1229 42.2787V27.3568C65.1229 27.3568 59.2893 18.2245 47.1815 18.2245C35.0736 18.2245 29.24 27.3568 29.24 27.3568V42.2787C29.24 42.2787 28.3031 42.0128 27.6614 42.6787C26.8833 43.4854 26.8855 44.2272 26.8855 45.95C26.8855 51.1318 30.8007 53.974 30.8007 53.974V71.5684L47.1815 83.8179L63.5622 71.5684V53.974C63.5622 53.974 67.473 51.1318 67.473 45.95C67.473 44.2272 67.473 43.4876 66.6993 42.6787Z" fill="#002953"/>
<path fill-rule="evenodd" clip-rule="evenodd" d="M47.1836 18.2267C34.993 18.2267 29.2779 27.4305 29.2779 27.4305V42.348C29.2779 42.348 28.3075 41.9927 27.668 42.6586C26.8899 43.4652 26.8921 44.2071 26.8921 45.9299C26.8921 51.1116 30.7715 53.9852 30.7715 53.9852V71.5885L47.1858 83.8201V18.2267H47.1836Z" fill="#000F24"/>
<path fill-rule="evenodd" clip-rule="evenodd" d="M33.4502 67.3251V73.5481L39.2257 77.8674L33.4502 67.3251Z" fill="#1D56A8"/>
<path fill-rule="evenodd" clip-rule="evenodd" d="M55.1279 77.8763L60.9079 73.5526V67.3251L55.1279 77.8763Z" fill="#0099FF"/>
<path fill-rule="evenodd" clip-rule="evenodd" d="M62.661 24.49C62.5626 24.3939 62.462 24.2978 62.3569 24.2017C62.263 24.1124 62.1646 24.023 62.064 23.9336L59.3227 26.1301L51.9663 32.0269L65.1228 38.5985V27.3568C65.1228 27.3568 64.3089 26.0832 62.661 24.49Z" fill="#0099FF"/>
<path fill-rule="evenodd" clip-rule="evenodd" d="M65.1229 39.5326C65.1229 39.5326 65.1229 39.5281 65.1229 39.5236C65.1162 39.4454 65.0804 39.1348 64.9955 38.6432C64.792 37.4947 64.3023 35.3697 63.1933 33.0012C63.0703 32.7353 62.9361 32.4895 62.7997 32.2593C62.7774 32.2213 62.7528 32.1833 62.7282 32.1454C62.7103 32.1185 62.6946 32.0917 62.6768 32.0649C60.5884 28.8294 57.1517 29.1154 56.5032 29.2003C56.4451 29.2092 56.4093 29.2137 56.3981 29.2159C56.4876 29.1534 59.2803 27.1624 60.2239 26.501C60.2261 26.4988 60.2306 26.4966 60.2328 26.4943C60.2328 26.4943 60.2328 26.4943 60.2351 26.4921C60.2485 26.4832 60.2641 26.472 60.2776 26.4631C61.2569 25.7793 62.0373 25.1157 62.6589 24.4945C62.5605 24.3984 62.4599 24.3023 62.3548 24.2062C62.2609 24.1168 62.1625 24.0275 62.0619 23.9381C61.9523 23.8398 61.8405 23.7414 61.7265 23.6409C60.9461 22.9661 60.0294 22.2645 58.974 21.6008C58.8689 21.5338 58.7616 21.4667 58.652 21.4019C57.1718 20.5037 55.4322 19.6836 53.431 19.1027C53.317 19.0691 53.2007 19.0379 53.0844 19.0043C51.3158 18.5239 49.3459 18.2312 47.1792 18.2312V35.8256C47.1792 35.8256 52.2951 31.4996 56.3713 31.9487C60.4475 32.3978 65.1207 39.546 65.1207 39.546C65.1207 39.546 65.1207 39.5437 65.1207 39.5348L65.1229 39.5326Z" fill="#1D56A8"/>
<path fill-rule="evenodd" clip-rule="evenodd" d="M58.6586 21.3975C57.1784 20.4992 55.4388 19.6792 53.4376 19.0982C50.3542 23.9828 49.4106 30.9633 49.2764 32.0962C49.2764 32.1074 49.2742 32.1163 49.272 32.1253C49.263 32.2079 49.2585 32.2526 49.2585 32.2526C50.4145 30.4293 52.1027 28.6819 53.7305 27.1088C53.7685 27.0709 53.8088 27.0329 53.8468 26.9949C55.0341 25.8531 56.1811 24.8051 57.0576 23.8889C57.8514 23.06 58.5021 22.2421 58.9806 21.5964C58.8755 21.5293 58.7682 21.4623 58.6586 21.3975Z" fill="#0099FF"/>
<path fill-rule="evenodd" clip-rule="evenodd" d="M60.2373 26.4899L54.9089 29.4349L65.1251 39.1549C65.1251 39.1549 65.1251 39.2555 65.1251 38.5986V33.752C65.1251 30.8024 63.0099 27.7903 60.2373 26.4899Z" fill="#004A91"/>
<path fill-rule="evenodd" clip-rule="evenodd" d="M65.123 39.5236C65.1095 39.2733 65.076 38.9739 65.0201 38.6365C64.7853 37.2221 64.1906 35.1328 63.2403 33.0861C63.1016 32.7889 62.9541 32.514 62.7976 32.2593C62.7752 32.2213 62.7506 32.1833 62.726 32.1453C62.7081 32.1185 62.6925 32.0917 62.6746 32.0649C60.3469 28.5255 56.4228 29.2584 56.4228 29.2584C56.4228 29.2584 56.4496 29.2383 56.501 29.2003C57.0287 28.8182 60.0182 26.6507 60.2239 26.501C60.2306 26.4965 60.2351 26.4943 60.2351 26.4943C59.9512 26.3625 59.6672 26.2463 59.3787 26.1502C59.3609 26.1457 59.343 26.139 59.3273 26.1346C58.4039 25.8307 57.4513 25.7256 56.4429 25.8977C56.4272 25.8977 56.4094 25.9022 56.3937 25.9044C56.3848 25.9044 56.3781 25.9066 56.3691 25.9089C55.4546 26.0787 54.5714 26.5144 53.7329 27.1133C51.9709 28.3757 50.4237 30.3667 49.2744 32.1275C48.3241 33.5843 47.6488 34.8848 47.3537 35.4792C47.3268 35.5373 47.3 35.5887 47.2799 35.6334C47.2217 35.7563 47.1904 35.8233 47.1904 35.8233L65.1297 39.5348C65.1297 39.5348 65.1297 39.5303 65.1297 39.5258L65.123 39.5236Z" fill="#002953"/>
<path fill-rule="evenodd" clip-rule="evenodd" d="M34.7919 26.3111C33.7298 25.4352 32.8354 24.6643 32.14 24.0565C31.9589 24.2241 31.7867 24.3872 31.6235 24.5481C30.0248 26.1167 29.2422 27.3591 29.2422 27.3591V38.717C29.3741 38.7639 29.5083 38.8086 29.6447 38.8533C30.1165 39.0052 30.624 39.1371 31.1517 39.2309C31.2613 39.251 31.3753 39.2689 31.4871 39.2868L37.7926 37.9506C37.8619 37.9059 37.9312 37.8589 37.9983 37.8098C39.5858 36.7037 41.1242 34.9184 42.468 32.1677C39.4561 30.0606 36.8199 27.987 34.7919 26.3111Z" fill="#004A91"/>
<path fill-rule="evenodd" clip-rule="evenodd" d="M40.9072 19.0959C38.7495 19.7194 36.9004 20.6176 35.3508 21.5941C34.0786 22.3985 33.0098 23.2543 32.14 24.0543C31.9589 24.2219 31.7867 24.385 31.6235 24.5459C32.254 25.1871 33.0545 25.8776 34.0696 26.5882C34.0741 26.5904 34.0808 26.5949 34.0875 26.5993C34.9707 27.2161 37.8797 29.2897 37.9692 29.3545C37.844 29.3344 33.3206 28.5635 31.1763 33.1419C30.0449 35.5574 29.7296 37.7204 29.6424 38.851C29.6178 39.1728 29.6111 39.4119 29.6111 39.5482C29.6111 39.6353 29.6111 39.6823 29.6111 39.6823L31.4848 39.2845L37.7903 37.9483L47.1814 35.8188L47.1769 18.2245C44.8537 18.2245 42.7653 18.5574 40.9072 19.0937V19.0959Z" fill="#011C3B"/>
<path fill-rule="evenodd" clip-rule="evenodd" d="M45.1734 32.3263C45.084 31.5443 44.1605 24.1414 40.9094 19.0959C38.7517 19.7194 36.9026 20.6176 35.353 21.5941C35.8382 22.2622 36.5291 23.1381 37.3811 24.0297C38.3671 25.0598 39.6931 26.2575 41.0346 27.5647C42.5596 29.0551 44.1024 30.6885 45.1824 32.3911C45.1824 32.3911 45.1824 32.3688 45.1757 32.3241L45.1734 32.3263Z" fill="#1D56A8"/>
<path fill-rule="evenodd" clip-rule="evenodd" d="M47.1836 35.8211C47.1836 35.8211 46.2848 34.0179 45.1735 32.3263C44.1025 30.6929 42.6692 28.845 41.0347 27.5669C40.0665 26.8116 39.0268 26.2552 37.9468 26.0653C36.8713 25.8754 35.8003 25.9804 34.7918 26.3111C34.5481 26.3893 34.3066 26.4832 34.0719 26.5882C31.7509 27.6183 29.8727 29.817 29.2444 32.2012V39.6264L29.6133 39.5504L31.1539 39.2309L38.0005 37.8098L47.1859 35.8211H47.1836Z" fill="#011C3B"/>
<path fill-rule="evenodd" clip-rule="evenodd" d="M38.1281 26.0563C36.7932 25.8128 35.2727 26.0161 34.0698 26.5881L38.0968 29.4125C38.0968 29.4125 33.5376 28.5456 31.3933 33.2402C30.2328 35.7808 29.9422 38.3862 29.8706 39.6867L47.1815 35.8188C47.1815 35.8188 43.074 26.9568 38.1258 26.0541L38.1281 26.0563Z" fill="#000F24"/>
<path fill-rule="evenodd" clip-rule="evenodd" d="M59.4169 31.7588C58.5359 31.227 57.4537 31.0348 56.7315 31.0348C50.4036 31.0348 47.1838 35.8233 47.1838 35.8233V75.4676C50.7569 75.4676 52.378 73.2331 56.7136 68.9004C56.8187 68.7954 56.926 68.6904 57.0311 68.5898C57.0423 68.5764 57.0557 68.5652 57.0691 68.5541C59.0859 66.5944 60.9105 65.1778 60.9105 60.5725V34.3173C60.9105 33.0771 60.2531 32.266 59.4169 31.761V31.7588Z" fill="#FF9C66"/>
<path fill-rule="evenodd" clip-rule="evenodd" d="M59.4167 52.3272L48.6729 49.829V59.6742L51.0609 59.3748L49.8669 54.0053L57.0309 58.7804V68.925C57.0309 68.925 57.0399 68.7887 57.0689 68.554C59.0858 66.5944 60.9104 65.1777 60.9104 60.5725V52.6758L59.4167 52.3294V52.3272Z" fill="url(#paint1_linear_158_4461)"/>
<path fill-rule="evenodd" clip-rule="evenodd" d="M59.4169 31.7587V62.36C57.7287 63.9554 57.1988 67.4144 57.0669 68.5518C59.0837 66.5921 60.9083 65.1755 60.9083 60.5702V34.315C60.9083 33.0748 60.2509 32.2637 59.4147 31.7587H59.4169Z" fill="url(#paint2_linear_158_4461)"/>
<path fill-rule="evenodd" clip-rule="evenodd" d="M51.9553 60.2708C51.9553 60.2708 53.203 60.3356 53.8671 61.0819C54.5289 61.8282 54.5558 63.2471 54.5558 63.2471L51.9553 60.273V60.2708Z" fill="#FF6445"/>
<path fill-rule="evenodd" clip-rule="evenodd" d="M39.7201 31.2135C39.0649 31.0973 38.3696 31.0325 37.6317 31.0325C36.9877 31.0325 36.0598 31.1867 35.2437 31.5956C34.271 32.0805 33.4526 32.9296 33.4526 34.315V60.5702C33.4526 65.3766 35.5097 66.7128 37.6317 68.811C37.6607 68.8401 37.692 68.8691 37.7211 68.9004C38.4612 69.64 39.1186 70.3171 39.7201 70.936C41.0192 72.2655 42.05 73.309 43.0562 74.0554C44.3172 74.9938 45.5359 75.4675 47.1838 75.4675V35.8233C47.1838 35.8233 44.6683 32.0872 39.7201 31.2158V31.2135Z" fill="#FE001F"/>
<path opacity="0.8" fill-rule="evenodd" clip-rule="evenodd" d="M39.7201 68.2435C39.1097 67.3251 38.4143 66.3397 37.6317 65.3073C36.9117 64.3577 36.1179 63.37 35.2437 62.3601V31.5956C34.271 32.0805 33.4526 32.9296 33.4526 34.315V60.5702C33.4526 65.3766 35.5097 66.7128 37.6317 68.811C37.6607 68.8401 37.692 68.8691 37.7211 68.9004C38.4612 69.64 39.1186 70.3171 39.7201 70.936C41.0192 72.2655 42.05 73.3091 43.0562 74.0554C42.6112 73.1079 41.5379 70.9762 39.7201 68.2435Z" fill="url(#paint3_linear_158_4461)"/>
<path opacity="0.3" fill-rule="evenodd" clip-rule="evenodd" d="M39.7201 42.6675V31.2135C39.0649 31.0973 38.3695 31.0325 37.6317 31.0325V40.2811L35.2437 41.2352L33.4526 41.9502V55.7929L35.2437 57.5827L37.6317 59.9714V68.8088C37.6607 68.8378 37.692 68.8669 37.7211 68.8981C38.4612 69.6378 39.1186 70.3148 39.7201 70.9338V62.6595L41.5089 60.2708L39.7201 61.1668V57.8844L44.4961 54.0053L43.3021 59.3748L45.6901 59.6742V46.846L39.7223 42.6697L39.7201 42.6675Z" fill="url(#paint4_linear_158_4461)"/>
<path fill-rule="evenodd" clip-rule="evenodd" d="M29.2422 37.1572V42.2809C29.2422 50.7407 32.6722 53.8757 34.4408 55.3392C35.7757 56.4431 36.5896 57.4866 36.5896 57.4866C36.5896 57.4866 39.5948 55.8398 42.3562 53.7572C44.9007 51.8356 47.1837 49.4089 47.1837 49.4089V45.179C47.1837 45.179 43.311 42.8015 40.999 41.9212C36.9876 40.395 31.3574 38.4152 29.2422 37.1595V37.1572Z" fill="#000F24"/>
<path fill-rule="evenodd" clip-rule="evenodd" d="M43.0337 48.4436L30.5972 43.9233C30.5972 43.9233 30.6151 44.2853 30.6978 44.8685C30.7805 45.4539 30.9303 46.2606 31.1942 47.1499C31.4245 47.9275 31.742 48.7676 32.1802 49.5743C33.6247 52.24 36.3615 54.546 36.3615 54.546C36.3615 54.546 38.6914 53.7148 40.8827 52.3987C41.4372 52.0658 41.9805 51.6993 42.4791 51.3395C42.8637 51.0625 43.2215 50.7899 43.5368 50.5418C44.3216 49.9229 44.8403 49.4603 44.8403 49.4603L43.0314 48.4436H43.0337Z" fill="#1D56A8"/>
<path fill-rule="evenodd" clip-rule="evenodd" d="M43.0337 48.4436L30.5972 43.9233C30.5972 43.9233 30.6151 44.2853 30.6978 44.8685C30.7805 45.4539 30.9303 46.2605 31.1942 47.1499C32.0819 47.8314 34.4006 49.5475 36.3615 50.4793C38.8479 51.6591 41.4484 50.7049 41.4484 50.7049L42.4814 51.3395C42.866 51.0625 43.2237 50.7899 43.539 50.5418C44.3238 49.9229 44.8426 49.4603 44.8426 49.4603L43.0337 48.4436Z" fill="#002953"/>
<path fill-rule="evenodd" clip-rule="evenodd" d="M43.0337 48.4436L30.5972 43.9233C30.5972 43.9233 30.6151 44.2853 30.6978 44.8685L43.539 50.5418C44.3238 49.9229 44.8426 49.4603 44.8426 49.4603L43.0337 48.4436Z" fill="#011C3B"/>
<path fill-rule="evenodd" clip-rule="evenodd" d="M35.1206 44.035C37.3364 44.035 42.696 45.9031 42.696 47.6527C42.696 49.4023 40.8983 50.8167 38.6825 50.8167C33.931 50.8167 32.6006 44.035 35.1206 44.035Z" fill="#000F24"/>
<path fill-rule="evenodd" clip-rule="evenodd" d="M34.3469 45.3533L41.8084 48.0392C41.8084 48.0392 40.1336 50.3094 37.0413 49.1229C34.3425 48.0861 34.3469 45.3556 34.3469 45.3556V45.3533Z" fill="white"/>
<path fill-rule="evenodd" clip-rule="evenodd" d="M29.2422 36.3774V40.4978C29.2422 40.4978 32.4061 42.1625 37.4952 43.6954C43.8767 45.6193 45.3904 49.2302 45.3904 49.2302L47.1837 47.4001V44.3925C47.1837 44.3925 43.311 42.1983 40.999 41.3201C36.9876 39.7939 31.3574 37.631 29.2422 36.3752V36.3774Z" fill="#1D56A8"/>
<path fill-rule="evenodd" clip-rule="evenodd" d="M65.1251 37.1572V42.2809C65.1251 50.7407 61.7622 53.8757 59.9913 55.3392C58.6564 56.4431 57.8425 57.4866 57.8425 57.4866C57.8425 57.4866 54.8374 55.8398 52.0759 53.7572C49.5314 51.8356 47.1814 49.4089 47.1814 49.4089V45.1768C47.1814 45.1768 51.1212 42.8015 53.4332 41.9212C57.4445 40.395 63.0099 38.4152 65.1229 37.1595L65.1251 37.1572Z" fill="#002953"/>
<path fill-rule="evenodd" clip-rule="evenodd" d="M58.0684 54.546C58.0684 54.546 55.7385 53.7148 53.5473 52.3987C51.5058 51.1742 49.5896 49.4603 49.5896 49.4603L51.3985 48.4436L63.835 43.9233C63.835 43.9233 63.6897 46.9264 62.2519 49.5743C60.8053 52.2378 58.0684 54.546 58.0684 54.546Z" fill="#0099FF"/>
<path fill-rule="evenodd" clip-rule="evenodd" d="M60.1031 44.826L51.8345 48.2827L51.2352 48.533L49.5918 49.4581C49.5918 49.4581 50.6092 50.3698 51.9508 51.3373L52.9838 50.7027C52.9838 50.7027 55.2466 51.4311 57.733 50.2513C59.7208 49.3061 60.0472 46.4102 60.0987 45.2818C60.1098 44.998 60.1054 44.826 60.1054 44.826H60.1031Z" fill="#1D56A8"/>
<path fill-rule="evenodd" clip-rule="evenodd" d="M51.3985 48.4436L49.5896 49.4603C49.5896 49.4603 50.1061 49.9229 50.8909 50.5396L63.7322 44.8685C63.8149 44.2853 63.8328 43.9233 63.8328 43.9233L51.3985 48.4436Z" fill="#004A91"/>
<path fill-rule="evenodd" clip-rule="evenodd" d="M59.3116 44.035C57.0957 44.035 51.7361 45.9031 51.7361 47.6527C51.7361 49.4023 53.5338 50.8167 55.7497 50.8167C60.5011 50.8167 61.8315 44.035 59.3116 44.035Z" fill="#002953"/>
<path fill-rule="evenodd" clip-rule="evenodd" d="M60.0137 45.3533L52.5522 48.0392C52.5522 48.0392 54.2985 50.3094 57.3909 49.1229C60.0897 48.0861 60.0137 45.3556 60.0137 45.3556V45.3533Z" fill="white"/>
<path fill-rule="evenodd" clip-rule="evenodd" d="M65.1251 36.3774V40.4978C65.1251 40.4978 62.0282 42.1625 56.9392 43.6954C50.5577 45.6193 48.9724 49.2302 48.9724 49.2302L47.1836 47.4001V44.3925C47.1836 44.3925 51.1234 42.1983 53.4354 41.3201C57.4467 39.7939 63.0121 37.631 65.1251 36.3752V36.3774Z" fill="#0099FF"/>
<path fill-rule="evenodd" clip-rule="evenodd" d="M41.1802 63.1533C41.1802 63.1533 44.5498 63.7499 47.148 63.7499C49.7462 63.7499 53.1158 63.1533 53.1158 63.1533C53.1158 63.1533 51.7206 64.646 47.148 64.646C42.5754 64.646 41.1802 63.1533 41.1802 63.1533Z" fill="#490009"/>
<path fill-rule="evenodd" clip-rule="evenodd" d="M51.0274 66.1364C51.0274 66.1364 49.2409 66.733 47.148 66.733C45.0551 66.733 43.2686 66.1364 43.2686 66.1364C43.2686 66.1364 45.2452 68.2256 47.148 68.2256C49.0508 68.2256 51.0274 66.1364 51.0274 66.1364Z" fill="#B10016"/>
<path fill-rule="evenodd" clip-rule="evenodd" d="M47.1904 61.4886C46.1328 61.4886 43.2998 59.377 43.2998 59.377L47.1904 59.9334L51.0832 59.377C51.0832 59.377 48.2503 61.4886 47.1904 61.4886Z" fill="#490009"/>
</g>
<defs>
<linearGradient id="paint0_linear_158_4461" x1="81.1927" y1="51.8021" x2="272.219" y2="51.8021" gradientUnits="userSpaceOnUse">
<stop stop-color="#1265BC"/>
<stop offset="0.35" stop-color="#0099FF"/>
<stop offset="0.86" stop-color="#FE202B"/>
<stop offset="1" stop-color="#FF6947"/>
</linearGradient>
<linearGradient id="paint1_linear_158_4461" x1="48.6729" y1="59.377" x2="60.9081" y2="59.377" gradientUnits="userSpaceOnUse">
<stop stop-color="#FF593F" stop-opacity="0.1"/>
<stop offset="1" stop-color="#FF593F"/>
</linearGradient>
<linearGradient id="paint2_linear_158_4461" x1="58.9876" y1="68.5518" x2="58.9876" y2="31.7587" gradientUnits="userSpaceOnUse">
<stop stop-color="#FF6345"/>
<stop offset="0.34" stop-color="#FE001F" stop-opacity="0.66"/>
<stop offset="1" stop-color="#FE001F" stop-opacity="0.1"/>
</linearGradient>
<linearGradient id="paint3_linear_158_4461" x1="38.2533" y1="74.0554" x2="38.2533" y2="31.5956" gradientUnits="userSpaceOnUse">
<stop stop-opacity="0.1"/>
<stop offset="1"/>
</linearGradient>
<linearGradient id="paint4_linear_158_4461" x1="33.4504" y1="50.9843" x2="45.6879" y2="50.9843" gradientUnits="userSpaceOnUse">
<stop offset="0.42"/>
<stop offset="0.9" stop-opacity="0.1"/>
</linearGradient>
<clipPath id="clip0_158_4461">
<rect width="302" height="100" fill="white"/>
</clipPath>
</defs>
</svg>
