<?xml version="1.0" encoding="UTF-8"?><svg id="Calque_1" xmlns="http://www.w3.org/2000/svg" xmlns:xlink="http://www.w3.org/1999/xlink" viewBox="0 0 340 82.81"><defs><style>.cls-1{fill:none;}.cls-1,.cls-2,.cls-3,.cls-4,.cls-5,.cls-6,.cls-7,.cls-8,.cls-9,.cls-10,.cls-11,.cls-12,.cls-13{stroke-width:0px;}.cls-2{fill:url(#Dégradé_sans_nom_20-10);}.cls-3{fill:url(#Dégradé_sans_nom_20-11);}.cls-4{fill:url(#Dégradé_sans_nom_20-9);}.cls-5{fill:url(#Dégradé_sans_nom_20-5);}.cls-6{fill:url(#Dégradé_sans_nom_20-8);}.cls-7{fill:url(#Dégradé_sans_nom_20-6);}.cls-8{fill:url(#Dégradé_sans_nom_20-7);}.cls-9{fill:url(#Dégradé_sans_nom_20-4);}.cls-10{fill:url(#Dégradé_sans_nom_20-2);}.cls-11{fill:url(#Dégradé_sans_nom_20-3);}.cls-12{fill:#081831;}.cls-13{fill:url(#Dégradé_sans_nom_20);}</style><linearGradient id="Dégradé_sans_nom_20" x1="332.83" y1="-1.6" x2="5.16" y2="56.18" gradientUnits="userSpaceOnUse"><stop offset="0" stop-color="#00ac73"/><stop offset=".79" stop-color="#06373f"/><stop offset="1" stop-color="#081831"/></linearGradient><linearGradient id="Dégradé_sans_nom_20-2" x1="337.16" y1="22.92" x2="9.48" y2="80.7" xlink:href="#Dégradé_sans_nom_20"/><linearGradient id="Dégradé_sans_nom_20-3" x1="335.39" y1="12.89" x2="7.71" y2="70.67" xlink:href="#Dégradé_sans_nom_20"/><linearGradient id="Dégradé_sans_nom_20-4" x1="333.53" y1="2.38" x2="5.86" y2="60.15" xlink:href="#Dégradé_sans_nom_20"/><linearGradient id="Dégradé_sans_nom_20-5" x1="329.6" y1="-19.95" x2="1.92" y2="37.82" xlink:href="#Dégradé_sans_nom_20"/><linearGradient id="Dégradé_sans_nom_20-6" x1="332.07" y1="-5.93" x2="4.39" y2="51.84" xlink:href="#Dégradé_sans_nom_20"/><linearGradient id="Dégradé_sans_nom_20-7" x1="339.75" y1="37.63" x2="12.08" y2="95.41" xlink:href="#Dégradé_sans_nom_20"/><linearGradient id="Dégradé_sans_nom_20-8" x1="338.13" y1="28.43" x2="10.45" y2="86.2" xlink:href="#Dégradé_sans_nom_20"/><linearGradient id="Dégradé_sans_nom_20-9" x1="337.34" y1="23.95" x2="9.66" y2="81.72" xlink:href="#Dégradé_sans_nom_20"/><linearGradient id="Dégradé_sans_nom_20-10" x1="331.76" y1="-7.66" x2="4.09" y2="50.12" xlink:href="#Dégradé_sans_nom_20"/><linearGradient id="Dégradé_sans_nom_20-11" x1="336.34" y1="18.29" x2="8.66" y2="76.07" xlink:href="#Dégradé_sans_nom_20"/></defs><path class="cls-1" d="m280.93,74.17h-2.29v4.2h2.27c1.31,0,2.23-.94,2.23-2.08s-.91-2.11-2.21-2.11Z"/><path class="cls-1" d="m81.9,74.14c-1.81,0-3.17,1.47-3.17,3.31s1.35,3.33,3.17,3.33,3.14-1.47,3.14-3.33-1.33-3.31-3.14-3.31Z"/><path class="cls-1" d="m178.44,74.18h-1.83v6.53h1.83c1.99,0,3.3-1.38,3.3-3.27s-1.31-3.27-3.3-3.27Z"/><path class="cls-1" d="m102.87,74.42s-.42,1.07-.74,1.86l-1.2,2.96h3.88l-1.2-2.96c-.32-.78-.72-1.83-.74-1.86Z"/><path class="cls-1" d="m127.8,74.14c-1.81,0-3.17,1.47-3.17,3.31s1.35,3.33,3.17,3.33,3.14-1.47,3.14-3.33-1.33-3.31-3.14-3.31Z"/><path class="cls-1" d="m153.79,74.18h-1.83v6.53h1.83c1.99,0,3.3-1.38,3.3-3.27s-1.31-3.27-3.3-3.27Z"/><path class="cls-1" d="m291.88,74.42s-.42,1.07-.74,1.86l-1.2,2.96h3.88l-1.2-2.96c-.32-.78-.72-1.83-.74-1.86Z"/><path class="cls-1" d="m239.11,74.42s-.42,1.07-.74,1.86l-1.2,2.96h3.88l-1.2-2.96c-.32-.78-.72-1.83-.74-1.86Z"/><path class="cls-1" d="m194.61,74.17h-2.29v4.2h2.27c1.31,0,2.23-.94,2.23-2.08s-.91-2.11-2.21-2.11Z"/><path class="cls-12" d="m21.26,78.39c0,1.55-.88,2.37-2.24,2.37s-2.24-.82-2.24-2.37v-6.13h-2.24v6.24c0,2.74,1.83,4.31,4.48,4.31s4.48-1.57,4.48-4.31v-6.24h-2.24v6.13Z"/><path class="cls-12" d="m32.42,79.1s-.66-1.12-1.23-1.91l-3.57-4.93h-2.15v10.38h2.24v-6.77s.64,1.1,1.33,2.03l3.46,4.74h2.16v-10.38h-2.24v6.84Z"/><polygon class="cls-12" points="38.96 78.2 44.53 78.2 44.53 76.3 38.96 76.3 38.96 74.18 44.83 74.18 44.83 72.26 36.71 72.26 36.71 82.64 45.06 82.64 45.06 80.72 38.96 80.72 38.96 78.2"/><rect class="cls-12" x="49.97" y="72.26" width="2.24" height="10.38"/><path class="cls-12" d="m61.23,79.1s-.66-1.12-1.23-1.91l-3.57-4.93h-2.15v10.38h2.24v-6.77s.64,1.1,1.33,2.03l3.46,4.74h2.16v-10.38h-2.24v6.84Z"/><path class="cls-12" d="m72.47,79.1s-.66-1.12-1.23-1.91l-3.57-4.93h-2.15v10.38h2.24v-6.77s.64,1.1,1.33,2.03l3.46,4.74h2.16v-10.38h-2.24v6.84Z"/><path class="cls-12" d="m81.88,72.1c-3.2,0-5.49,2.39-5.49,5.35s2.29,5.36,5.49,5.36,5.49-2.39,5.49-5.36-2.29-5.35-5.49-5.35Zm.02,8.68c-1.83,0-3.17-1.47-3.17-3.33s1.36-3.31,3.17-3.31,3.14,1.47,3.14,3.31-1.33,3.33-3.14,3.33Z"/><path class="cls-12" d="m96.1,72.26l-2.31,6.07c-.22.59-.59,1.74-.62,1.82-.02-.08-.4-1.23-.62-1.82l-2.27-6.07h-2.29l4.04,10.39h2.32l4.03-10.39h-2.27Z"/><path class="cls-12" d="m101.77,72.26l-4.52,10.38h2.29l.7-1.65h5.27l.7,1.65h2.27l-4.52-10.38h-2.21Zm-.83,6.98l1.2-2.96c.32-.78.72-1.83.74-1.86.02.03.42,1.07.74,1.86l1.2,2.96h-3.88Z"/><polygon class="cls-12" points="107.71 74.18 111.23 74.18 111.23 82.64 113.47 82.64 113.47 74.18 116.99 74.18 116.99 72.26 107.71 72.26 107.71 74.18"/><rect class="cls-12" x="118.35" y="72.26" width="2.24" height="10.38"/><path class="cls-12" d="m127.79,72.1c-3.2,0-5.49,2.39-5.49,5.35s2.29,5.36,5.49,5.36,5.49-2.39,5.49-5.36-2.29-5.35-5.49-5.35Zm.02,8.68c-1.83,0-3.17-1.47-3.17-3.33s1.36-3.31,3.17-3.31,3.14,1.47,3.14,3.31-1.33,3.33-3.14,3.33Z"/><path class="cls-12" d="m141.91,79.1s-.66-1.12-1.23-1.91l-3.57-4.93h-2.15v10.38h2.24v-6.77s.64,1.1,1.33,2.03l3.46,4.74h2.16v-10.38h-2.24v6.84Z"/><path class="cls-12" d="m153.88,72.26h-4.16v10.38h4.16c3.41,0,5.56-2.35,5.56-5.19s-2.15-5.19-5.56-5.19Zm-.1,8.45h-1.83v-6.53h1.83c1.99,0,3.3,1.39,3.3,3.27s-1.31,3.27-3.3,3.27Z"/><polygon class="cls-12" points="163.36 78.2 168.93 78.2 168.93 76.3 163.36 76.3 163.36 74.18 169.24 74.18 169.24 72.26 161.12 72.26 161.12 82.64 169.46 82.64 169.46 80.72 163.36 80.72 163.36 78.2"/><path class="cls-12" d="m178.54,72.26h-4.16v10.38h4.16c3.41,0,5.56-2.35,5.56-5.19s-2.15-5.19-5.56-5.19Zm-.1,8.45h-1.83v-6.53h1.83c1.99,0,3.3,1.39,3.3,3.27s-1.31,3.27-3.3,3.27Z"/><rect class="cls-12" x="185.78" y="72.26" width="2.24" height="10.38"/><path class="cls-12" d="m199.19,76.28c0-2.23-1.6-4.02-4.66-4.02h-4.45v10.38h2.24v-2.35h2c.3,0,.58-.03.88-.08l1.6,2.43h2.58l-2.16-3.06c1.28-.69,1.97-1.97,1.97-3.3Zm-4.6,2.08h-2.27v-4.2h2.29c1.3,0,2.21.93,2.21,2.11s-.91,2.08-2.23,2.08Z"/><polygon class="cls-12" points="203.05 78.2 208.62 78.2 208.62 76.3 203.05 76.3 203.05 74.18 208.93 74.18 208.93 72.26 200.81 72.26 200.81 82.64 209.15 82.64 209.15 80.72 203.05 80.72 203.05 78.2"/><path class="cls-12" d="m215.75,80.78c-1.84,0-3.19-1.49-3.19-3.35s1.38-3.3,3.27-3.3c.7,0,1.43.18,2.13.78l1.38-1.51c-.93-.83-2.21-1.31-3.64-1.31-3.2,0-5.48,2.39-5.48,5.33s2.27,5.38,5.48,5.38c1.59,0,2.93-.58,3.92-1.54l-1.39-1.57c-.64.7-1.52,1.07-2.48,1.07Z"/><polygon class="cls-12" points="220.18 74.18 223.71 74.18 223.71 82.64 225.95 82.64 225.95 74.18 229.47 74.18 229.47 72.26 220.18 72.26 220.18 74.18"/><path class="cls-12" d="m238,72.26l-4.52,10.38h2.29l.7-1.65h5.27l.7,1.65h2.27l-4.51-10.38h-2.21Zm-.83,6.98l1.2-2.96c.32-.78.72-1.83.74-1.86.02.03.42,1.07.74,1.86l1.2,2.96h-3.88Z"/><path class="cls-12" d="m249.95,76.25c-1.02-.24-1.78-.48-1.78-1.15,0-.78,1.02-.99,1.57-.99,1.06,0,2.15.29,2.98.83l.82-1.73c-1.04-.69-2.23-1.1-3.8-1.1-1.99,0-3.86.99-3.86,2.99,0,2.16,2,2.82,3.94,3.27.91.22,1.84.43,1.84,1.23s-1.06,1.22-1.92,1.22c-1.59,0-2.58-.53-3.41-1.14l-.82,1.73c.58.46,1.75,1.41,4.23,1.41,2.08,0,4.26-.98,4.26-3.22s-2.21-2.91-4.05-3.35Z"/><path class="cls-12" d="m259.76,76.25c-1.02-.24-1.78-.48-1.78-1.15,0-.78,1.02-.99,1.57-.99,1.06,0,2.15.29,2.98.83l.82-1.73c-1.04-.69-2.23-1.1-3.8-1.1-1.99,0-3.86.99-3.86,2.99,0,2.16,2,2.82,3.94,3.27.91.22,1.84.43,1.84,1.23s-1.06,1.22-1.92,1.22c-1.59,0-2.58-.53-3.41-1.14l-.82,1.73c.58.46,1.75,1.41,4.23,1.41,2.08,0,4.26-.98,4.26-3.22s-2.21-2.91-4.05-3.35Z"/><path class="cls-12" d="m272.19,78.39c0,1.55-.88,2.37-2.24,2.37s-2.24-.82-2.24-2.37v-6.13h-2.24v6.24c0,2.74,1.83,4.31,4.48,4.31s4.48-1.57,4.48-4.31v-6.24h-2.24v6.13Z"/><path class="cls-12" d="m285.51,76.28c0-2.23-1.6-4.02-4.66-4.02h-4.45v10.38h2.24v-2.35h2c.31,0,.58-.03.88-.08l1.6,2.43h2.58l-2.16-3.06c1.28-.69,1.97-1.97,1.97-3.3Zm-4.6,2.08h-2.27v-4.2h2.29c1.3,0,2.21.93,2.21,2.11s-.91,2.08-2.23,2.08Z"/><path class="cls-12" d="m290.77,72.26l-4.51,10.38h2.29l.7-1.65h5.27l.7,1.65h2.27l-4.52-10.38h-2.21Zm-.83,6.98l1.2-2.96c.32-.78.72-1.83.74-1.86.02.03.42,1.07.74,1.86l1.2,2.96h-3.88Z"/><path class="cls-12" d="m305.63,79.1s-.66-1.12-1.23-1.91l-3.57-4.93h-2.15v10.38h2.24v-6.77s.64,1.1,1.33,2.03l3.46,4.74h2.16v-10.38h-2.24v6.84Z"/><path class="cls-12" d="m315.08,80.78c-1.84,0-3.19-1.49-3.19-3.35s1.38-3.3,3.27-3.3c.7,0,1.42.18,2.13.78l1.38-1.51c-.93-.83-2.21-1.31-3.64-1.31-3.2,0-5.48,2.39-5.48,5.33s2.27,5.38,5.48,5.38c1.59,0,2.93-.58,3.92-1.54l-1.39-1.57c-.64.7-1.52,1.07-2.48,1.07Z"/><polygon class="cls-12" points="322.45 78.2 328.02 78.2 328.02 76.3 322.45 76.3 322.45 74.18 328.32 74.18 328.32 72.26 320.2 72.26 320.2 82.64 328.55 82.64 328.55 80.72 322.45 80.72 322.45 78.2"/><path class="cls-13" d="m164.7,8.92h-22.11v11.5c.75-.01,1.53-.03,1.57-.03,11.22-.1,22.07,3.23,31.35,9.57l.16.1c6.35,4.34,11.63,9.89,15.62,16.31,1.51-3.35,2.32-7.05,2.32-10.93,0-14.49-11.14-26.53-28.9-26.53Z"/><path class="cls-10" d="m144.73,48.22c-.08,0-.76-.03-1.53-.06-.2,0-.41-.02-.61-.03v13.84h22.11c1.15,0,2.27-.05,3.37-.15-4.79-8.26-13.54-13.48-23.34-13.6Z"/><path class="cls-11" d="m144.34,27.63h-.14c-.05,0-.85.01-1.6.03v13.28c.39,0,.95.02,1.43.03.43.01.79.02.89.02,13.19.16,24.86,7.65,30.55,19.33,4.57-1.52,8.39-4,11.33-7.16-8.26-15.49-24.65-25.53-42.45-25.53Z"/><path class="cls-9" d="m119.91,39.87c0,5.16-1.64,9.01-6.14,9.01-3.93,0-5.4-2.05-5.4-6.47v-22.27h-14.9v24.15c0,10.64,2.62,18.5,15.23,18.5,4.34,0,9.74-2.46,12.04-5.4v4.59h14.08V20.14h-14.9v19.73Z"/><path class="cls-5" d="m33.71,9.86l-9.45,18.26c-5.88-4.3-9.57-11.16-9.79-18.53H0c.09,6.88,2.04,13.55,5.7,19.42,3.03,4.91,7.07,9,11.86,12.06l-11.24,21.73h16.02L50.96,9.86h-17.25Z"/><path class="cls-7" d="m65.54,19.32c-12.85,0-22.6,9.66-22.6,21.78s9.74,21.7,22.6,21.7,22.6-9.66,22.6-21.7-9.74-21.78-22.6-21.78Zm0,30.38c-4.42,0-7.53-3.52-7.53-8.6s3.11-8.68,7.53-8.68,7.53,3.68,7.53,8.68-3.11,8.6-7.53,8.6Z"/><path class="cls-8" d="m340,41.1c0-12.12-9.09-21.78-20.96-21.78-11.88-.15-21.63,9.36-21.78,21.24,0,.18,0,.36,0,.54,0,13.76,10.81,21.7,23.5,21.7,5.16,0,10.32-1.06,14.98-3.93l-4.99-10.07c-3.05,1.63-6.45,2.51-9.91,2.54-4.01,0-7.7-1.47-8.92-5.4h27.76c.21-1.6.32-3.22.33-4.83Zm-28.49-3.6c.9-3.85,3.85-6.47,7.53-6.47,3.77-.09,6.97,2.72,7.37,6.47h-14.9Z"/><path class="cls-6" d="m275.31,42.41c-.57,1.97-.9,3.52-1.39,5.32-.49-1.8-.82-3.36-1.39-5.32l-6.3-22.27h-14.74l14.9,41.84h15.07l14.9-41.84h-14.74l-6.3,22.27Z"/><rect class="cls-4" x="232.82" y="20.14" width="14.9" height="41.84"/><path class="cls-2" d="m240.19,0c-4.66.06-8.42,3.85-8.43,8.52.05,4.64,3.8,8.38,8.43,8.43,4.69.02,8.53-3.74,8.6-8.43C248.75,3.8,244.91-.01,240.19,0Z"/><path class="cls-3" d="m214.23,27.59v-7.45h-14.49v41.84h14.9v-14.08c0-7.86,2.46-12.36,13.26-12.36v-16.21c-9.82,0-13.43,6.47-13.67,8.27Z"/></svg>