<svg width="70" height="112" viewBox="0 0 70 112" fill="none" xmlns="http://www.w3.org/2000/svg">
<path fill-rule="evenodd" clip-rule="evenodd" d="M64.1794 61.9233V89.5931L35.0066 111.448L5.82061 89.5931V61.9233C5.82061 61.9233 -0.384881 56.6877 0.018882 45.3568C0.200009 40.283 3.53576 39.0113 3.53576 39.0113V18.3906C3.53576 18.3906 12.8374 0.589966 35.0085 0.589966C57.1796 0.589966 66.4661 18.3906 66.4661 18.3906V39.0113C66.4661 39.0113 69.8 40.2811 69.9811 45.3568C70.3849 56.6877 64.1813 61.9233 64.1813 61.9233H64.1794Z" fill="white"/>
<path fill-rule="evenodd" clip-rule="evenodd" d="M65.8116 42.8812C64.806 41.8333 63.3249 42.2528 63.3249 42.2528V18.75C63.3249 18.75 54.1157 4.36768 35.003 4.36768C15.8903 4.36768 6.68117 18.75 6.68117 18.75V42.2528C6.68117 42.2528 5.20008 41.8333 4.18878 42.8812C2.96052 44.1529 2.9624 45.3193 2.9624 48.0321C2.9624 56.1931 9.14336 60.6686 9.14336 60.6686V88.3817L35.0011 107.676L60.8589 88.3817V60.6686C60.8589 60.6686 67.0323 56.1931 67.0323 48.0321C67.0323 45.3174 67.0323 44.1529 65.8097 42.8812H65.8116Z" fill="#002953"/>
<path fill-rule="evenodd" clip-rule="evenodd" d="M35.0027 4.29236C15.7579 4.29236 6.73553 18.8591 6.73553 18.8591V42.3543C6.73553 42.3543 5.20538 41.7937 4.1922 42.8416C2.96393 44.1133 2.96582 45.2797 2.96582 47.9925C2.96582 56.1535 9.09018 60.6798 9.09018 60.6798V88.4042L35.0008 107.67V4.29236H35.0027Z" fill="#000F24"/>
<path fill-rule="evenodd" clip-rule="evenodd" d="M13.3281 81.6993V91.5027L22.4449 98.3054L13.3281 81.7012V81.6993Z" fill="#1D56A8"/>
<path fill-rule="evenodd" clip-rule="evenodd" d="M47.5459 98.3185L56.6702 91.5102V81.6993L47.5459 98.3185Z" fill="#0099FF"/>
<path fill-rule="evenodd" clip-rule="evenodd" d="M59.4378 14.2312C59.2831 14.0807 59.1227 13.9302 58.9586 13.7778C58.8095 13.6367 58.6548 13.4975 58.4963 13.3545L54.1681 16.816L42.5571 26.1039L63.3245 36.4547V18.75C63.3245 18.75 62.0396 16.7446 59.4378 14.233V14.2312Z" fill="#0099FF"/>
<path fill-rule="evenodd" clip-rule="evenodd" d="M63.3247 37.924C63.3247 37.924 63.3247 37.9146 63.3247 37.9108C63.3115 37.7885 63.2587 37.2975 63.1228 36.5243C62.8002 34.7164 62.0266 31.3678 60.2757 27.6391C60.0814 27.2214 59.872 26.832 59.6531 26.4689C59.6154 26.4087 59.5777 26.3485 59.5399 26.2883C59.5116 26.245 59.4852 26.2018 59.4569 26.1604C56.1608 21.064 50.7345 21.5136 49.7138 21.6491C49.6213 21.6622 49.5647 21.6717 49.5477 21.6735C49.6892 21.5738 54.0967 18.4415 55.5891 17.3993C55.5947 17.3936 55.6004 17.3899 55.6042 17.3861C55.6042 17.3861 55.608 17.3823 55.6098 17.3805C55.6325 17.3654 55.6551 17.3485 55.6778 17.3334C57.2249 16.2573 58.455 15.2114 59.4362 14.2331C59.2814 14.0826 59.1211 13.9321 58.9569 13.7797C58.8079 13.6386 58.6532 13.4994 58.4947 13.3564C58.323 13.2021 58.1456 13.046 57.9645 12.8899C56.7306 11.8269 55.2853 10.7226 53.6212 9.67664C53.4533 9.57129 53.2854 9.46593 53.1137 9.36246C50.7779 7.94774 48.0308 6.65531 44.8724 5.74101C44.6913 5.68833 44.5083 5.63754 44.3234 5.58674C41.5291 4.82859 38.4235 4.36768 35.001 4.36768V32.0808C35.001 32.0808 43.0762 25.2687 49.5119 25.976C55.9476 26.6834 63.3228 37.9428 63.3228 37.9428C63.3228 37.9428 63.3228 37.9372 63.3228 37.9259L63.3247 37.924Z" fill="#1D56A8"/>
<path fill-rule="evenodd" clip-rule="evenodd" d="M53.1175 9.36047C50.7817 7.94575 48.0346 6.65331 44.8762 5.73901C40.0103 13.4334 38.5198 24.4257 38.3066 26.2092C38.3028 26.2261 38.3009 26.243 38.299 26.2562C38.2839 26.3879 38.2764 26.4575 38.2764 26.4575C40.1027 23.5848 42.7668 20.8344 45.3365 18.3567C45.3988 18.2965 45.4592 18.2382 45.5215 18.178C47.395 16.3795 49.2044 14.7278 50.5892 13.2848C51.842 11.9792 52.8703 10.6924 53.6231 9.67276C53.4552 9.56741 53.2873 9.46206 53.1156 9.35859L53.1175 9.36047Z" fill="#0099FF"/>
<path fill-rule="evenodd" clip-rule="evenodd" d="M55.6098 17.3804L47.1987 22.0196L63.3247 37.3294C63.3247 37.3294 63.3247 37.4856 63.3247 36.4527V28.8185C63.3247 24.1718 59.9833 19.4291 55.6098 17.3804Z" fill="#004A91"/>
<path fill-rule="evenodd" clip-rule="evenodd" d="M63.3226 37.9089C63.3019 37.5139 63.2471 37.0417 63.1585 36.5111C62.7887 34.2837 61.8491 30.9915 60.3491 27.7688C60.1302 27.3004 59.8963 26.8677 59.651 26.467C59.6133 26.4068 59.5756 26.3466 59.5378 26.2864C59.5095 26.2431 59.4831 26.1999 59.4548 26.1585C55.7813 20.5824 49.5871 21.7375 49.5871 21.7375C49.5871 21.7375 49.6305 21.7055 49.7117 21.6472C50.5437 21.0452 55.2625 17.6325 55.587 17.3974C55.6002 17.388 55.604 17.3842 55.604 17.3842C55.1568 17.1754 54.7078 16.9929 54.2531 16.8405C54.2248 16.8311 54.1965 16.8236 54.17 16.8142C52.7116 16.3363 51.2079 16.1689 49.6173 16.4398C49.5909 16.4436 49.5645 16.4473 49.5381 16.453C49.5249 16.453 49.5117 16.4586 49.4985 16.4605C48.0551 16.7276 46.6589 17.4124 45.3382 18.3587C42.5571 20.3472 40.1138 23.4833 38.3007 26.2563C36.8026 28.5515 35.7366 30.5983 35.2687 31.5352C35.2253 31.6255 35.1838 31.7082 35.1517 31.7778C35.0592 31.9716 35.0083 32.0751 35.0083 32.0751L63.3283 37.9202C63.3283 37.9202 63.3283 37.9108 63.3283 37.907L63.3226 37.9089Z" fill="#002953"/>
<path fill-rule="evenodd" clip-rule="evenodd" d="M15.4432 17.1002C13.7659 15.7193 12.3546 14.5078 11.2585 13.5483C10.9736 13.8117 10.7 14.0695 10.4415 14.3215C7.91703 16.7935 6.68311 18.7482 6.68311 18.7482V36.6391C6.89065 36.7125 7.10196 36.784 7.31894 36.8536C8.0642 37.0925 8.86417 37.2995 9.69811 37.45C9.87169 37.4819 10.049 37.512 10.2283 37.5384L20.1808 35.4351C20.2903 35.3636 20.3997 35.2903 20.5054 35.2131C23.011 33.4692 25.4411 30.6604 27.5599 26.3278C22.8072 23.0074 18.645 19.7434 15.4432 17.1021V17.1002Z" fill="#004A91"/>
<path fill-rule="evenodd" clip-rule="evenodd" d="M25.0995 5.73534C21.6921 6.71549 18.7733 8.13209 16.3281 9.67097C14.3187 10.9371 12.6319 12.2859 11.2584 13.5464C10.9735 13.8098 10.6999 14.0675 10.4414 14.3196C11.4376 15.3299 12.7017 16.4153 14.3036 17.5347C14.313 17.5404 14.3225 17.5479 14.3319 17.5535C15.7243 18.5261 20.3185 21.792 20.46 21.8936C20.2638 21.8598 13.1225 20.6463 9.73767 27.8592C7.95282 31.6631 7.45283 35.0701 7.3151 36.8517C7.27548 37.3577 7.26605 37.7359 7.26416 37.9522C7.26416 38.0914 7.26416 38.1629 7.26416 38.1629L10.2226 37.5364L20.1751 35.4332L34.9993 32.077L34.9917 4.36389C31.3258 4.36389 28.0296 4.88689 25.0939 5.73346L25.0995 5.73534Z" fill="#011C3B"/>
<path fill-rule="evenodd" clip-rule="evenodd" d="M31.8315 26.5742C31.69 25.342 30.2334 13.6819 25.0996 5.73535C21.6921 6.7155 18.7733 8.1321 16.3281 9.67098C17.0941 10.7207 18.1847 12.1035 19.5299 13.5088C21.0846 15.1286 23.1808 17.0174 25.2958 19.0774C27.7014 21.4233 30.1391 23.9988 31.8428 26.6815C31.8428 26.6815 31.839 26.6439 31.8296 26.5742H31.8315Z" fill="#1D56A8"/>
<path fill-rule="evenodd" clip-rule="evenodd" d="M35.005 32.0788C35.005 32.0788 33.588 29.24 31.8315 26.5742C30.1391 24.0025 27.8787 21.0903 25.2958 19.0773C23.7675 17.8884 22.1261 17.0136 20.4223 16.7126C18.7224 16.4134 17.0319 16.579 15.4432 17.0982C15.0583 17.2224 14.6772 17.371 14.3055 17.5347C10.6415 19.1582 7.67742 22.6216 6.68311 26.3767V38.0726L7.26799 37.9522L9.69811 37.448L20.5054 35.2093L35.0031 32.0769L35.005 32.0788Z" fill="#011C3B"/>
<path fill-rule="evenodd" clip-rule="evenodd" d="M20.7108 16.6994C18.6015 16.3156 16.2053 16.6373 14.3054 17.5366C14.3073 17.5366 20.6618 21.9858 20.6618 21.9858C20.6618 21.9858 13.4658 20.62 10.081 28.0153C8.24893 32.0149 7.79045 36.1198 7.67725 38.1704L35.0048 32.0807C35.0048 32.0807 28.5201 18.1254 20.7108 16.7013V16.6994Z" fill="#000F24"/>
<path fill-rule="evenodd" clip-rule="evenodd" d="M54.3138 25.6787C52.9233 24.8396 51.2158 24.5367 50.0743 24.5367C40.0859 24.5367 35.0049 32.0788 35.0049 32.0788V94.5202C40.6444 94.5202 43.2047 91.0022 50.046 84.177C50.2139 84.0095 50.3799 83.8477 50.546 83.6878C50.5648 83.6671 50.5856 83.6483 50.6063 83.6295C53.7893 80.5442 56.6722 78.3111 56.6722 71.0569V29.7046C56.6722 27.75 55.6364 26.4745 54.3157 25.6768L54.3138 25.6787Z" fill="#FF9C66"/>
<path fill-rule="evenodd" clip-rule="evenodd" d="M54.3139 58.0744L37.354 54.1406V69.648L41.1237 69.1777L39.2389 60.7194L50.5461 68.2389V84.2166C50.5461 84.2166 50.5612 84.0021 50.6065 83.6315C53.7894 80.5462 56.6723 78.3132 56.6723 71.0589V58.6237L54.3158 58.0763L54.3139 58.0744Z" fill="url(#paint0_linear_535_4711)"/>
<path fill-rule="evenodd" clip-rule="evenodd" d="M54.3139 25.6787V73.8789C51.6498 76.3904 50.814 81.8386 50.6064 83.6314C53.7894 80.5461 56.6723 78.3131 56.6723 71.0589V29.7065C56.6723 27.7519 55.6365 26.4764 54.3158 25.6787H54.3139Z" fill="url(#paint1_linear_535_4711)"/>
<path fill-rule="evenodd" clip-rule="evenodd" d="M42.5366 70.5886C42.5366 70.5886 44.5083 70.6883 45.5554 71.866C46.6025 73.0418 46.6422 75.2749 46.6422 75.2749L42.5366 70.5886Z" fill="#FF6445"/>
<path fill-rule="evenodd" clip-rule="evenodd" d="M23.2222 24.8227C22.1901 24.6402 21.0902 24.5367 19.9242 24.5367C18.9091 24.5367 17.4431 24.7794 16.1545 25.4228C14.6187 26.1885 13.3281 27.5242 13.3281 29.7065V71.0588C13.3281 78.6291 16.5752 80.7323 19.9242 84.0377C19.9713 84.0829 20.0185 84.1299 20.0676 84.1788C21.2354 85.3434 22.275 86.4119 23.2241 87.3826C25.2731 89.4765 26.9032 91.1189 28.49 92.2966C30.4786 93.7734 32.4031 94.5202 35.0049 94.5202V32.0788C35.0049 32.0788 31.0333 26.196 23.2222 24.8227Z" fill="#FE001F"/>
<path opacity="0.8" fill-rule="evenodd" clip-rule="evenodd" d="M23.2222 83.1442C22.2581 81.6994 21.1619 80.1455 19.9242 78.5182C18.7884 77.0244 17.5337 75.4686 16.1545 73.877V25.421C14.6187 26.1867 13.3281 27.5224 13.3281 29.7047V71.057C13.3281 78.6273 16.5752 80.7305 19.9242 84.0359C19.9713 84.0811 20.0185 84.1281 20.0676 84.177C21.2354 85.3415 22.275 86.4101 23.2241 87.3809C25.2731 89.4747 26.9032 91.1171 28.49 92.2947C27.7881 90.8029 26.0938 87.4467 23.2241 83.1423L23.2222 83.1442Z" fill="url(#paint2_linear_535_4711)"/>
<path opacity="0.3" fill-rule="evenodd" clip-rule="evenodd" d="M23.2222 42.8623V24.8227C22.1901 24.6402 21.0902 24.5367 19.9242 24.5367V39.1035L16.1545 40.6066L13.3281 41.7335V63.5375L16.1545 66.3556L19.9242 70.1163V84.0359C19.9713 84.081 20.0185 84.128 20.0676 84.177C21.2355 85.3415 22.275 86.41 23.2241 87.3808V74.3473L26.0485 70.5866L23.2241 71.9976V66.8278L30.7616 60.7193L28.8768 69.1775L32.6465 69.6479V49.4411L23.2241 42.8623H23.2222Z" fill="url(#paint3_linear_535_4711)"/>
<path fill-rule="evenodd" clip-rule="evenodd" d="M6.68311 34.182V42.2508C6.68311 55.574 12.0962 60.5124 14.8904 62.8169C16.9979 64.5552 18.2809 66.1995 18.2809 66.1995C18.2809 66.1995 23.0261 63.6071 27.3825 60.3261C31.4013 57.2991 35.005 53.4783 35.005 53.4783V46.8167C35.005 46.8167 28.8919 43.071 25.2411 41.6864C18.9092 39.284 10.0207 36.163 6.68311 34.1858V34.182Z" fill="#000F24"/>
<path fill-rule="evenodd" clip-rule="evenodd" d="M28.4543 51.9582L8.82275 44.8395C8.82275 44.8395 8.85105 45.4095 8.98124 46.3295C9.11331 47.2494 9.34915 48.5211 9.76612 49.9208C10.1284 51.1455 10.6321 52.4699 11.3227 53.7398C13.6038 57.9369 17.9244 61.5716 17.9244 61.5716C17.9244 61.5716 21.6035 60.2622 25.0619 58.189C25.9355 57.666 26.794 57.0866 27.5826 56.5184C28.1901 56.082 28.7562 55.6512 29.2524 55.2618C30.4901 54.2891 31.3089 53.5592 31.3089 53.5592L28.4543 51.9582Z" fill="#1D56A8"/>
<path fill-rule="evenodd" clip-rule="evenodd" d="M28.4543 51.9582L8.82275 44.8395C8.82275 44.8395 8.85105 45.4095 8.98124 46.3295C9.11331 47.2494 9.34915 48.5211 9.76612 49.9208C11.1661 50.9931 14.8264 53.6946 17.9244 55.1639C21.8488 57.0226 25.9544 55.5195 25.9544 55.5195L27.5826 56.5184C28.1901 56.082 28.7562 55.6512 29.2524 55.2618C30.4901 54.2891 31.3089 53.5592 31.3089 53.5592L28.4543 51.9582Z" fill="#002953"/>
<path fill-rule="evenodd" clip-rule="evenodd" d="M28.4543 51.9582L8.82275 44.8395C8.82275 44.8395 8.85105 45.4095 8.98124 46.3295L29.2524 55.2636C30.4901 54.291 31.3089 53.5611 31.3089 53.5611L28.4543 51.9601V51.9582Z" fill="#011C3B"/>
<path fill-rule="evenodd" clip-rule="evenodd" d="M15.9622 45.0162C19.4603 45.0162 27.9185 47.9604 27.9185 50.7127C27.9185 53.465 25.0827 55.6962 21.5828 55.6962C14.0812 55.6962 11.9831 45.0162 15.9622 45.0162Z" fill="#000F24"/>
<path fill-rule="evenodd" clip-rule="evenodd" d="M14.7411 47.0912L26.5182 51.3203C26.5182 51.3203 23.8749 54.8966 18.9939 53.0248C14.7317 51.3918 14.7393 47.0894 14.7393 47.0894L14.7411 47.0912Z" fill="white"/>
<path fill-rule="evenodd" clip-rule="evenodd" d="M6.68311 32.9554V39.4458C6.68311 39.4458 11.6773 42.0665 19.7092 44.4839C29.7825 47.5128 32.173 53.2017 32.173 53.2017L35.005 50.3196V45.5845C35.005 45.5845 28.8919 42.1304 25.2411 40.7439C18.9092 38.3415 10.0207 34.9327 6.68311 32.9554Z" fill="#1D56A8"/>
<path fill-rule="evenodd" clip-rule="evenodd" d="M63.3248 34.182V42.2508C63.3248 55.574 58.0155 60.5124 55.2212 62.8169C53.1137 64.5552 51.8308 66.1995 51.8308 66.1995C51.8308 66.1995 47.0856 63.6071 42.7291 60.3261C38.7123 57.2991 35.0029 53.4783 35.0029 53.4783V46.8129C35.0029 46.8129 41.2216 43.071 44.8706 41.6845C51.2025 39.2821 59.9871 36.1611 63.3248 34.1839V34.182Z" fill="#002953"/>
<path fill-rule="evenodd" clip-rule="evenodd" d="M52.1873 61.5716C52.1873 61.5716 48.5101 60.2603 45.0498 58.189C41.8273 56.2607 38.8047 53.5611 38.8047 53.5611L41.6593 51.9601L61.289 44.8395C61.289 44.8395 61.0588 49.5709 58.7909 53.7398C56.508 57.9369 52.1873 61.5716 52.1873 61.5716Z" fill="#0099FF"/>
<path fill-rule="evenodd" clip-rule="evenodd" d="M55.3985 46.2637L42.3442 51.71L41.397 52.105L38.8027 53.5611C38.8027 53.5611 40.4065 54.9966 42.5272 56.5204L44.1554 55.5214C44.1554 55.5214 47.727 56.669 51.6514 54.8084C54.7872 53.3203 55.3042 48.7564 55.3853 46.9823C55.4042 46.5346 55.3985 46.2656 55.3985 46.2656V46.2637Z" fill="#1D56A8"/>
<path fill-rule="evenodd" clip-rule="evenodd" d="M41.6593 51.9582L38.8047 53.5591C38.8047 53.5591 39.6216 54.2891 40.8594 55.2598L61.1305 46.3275C61.2607 45.4075 61.289 44.8375 61.289 44.8375L41.6593 51.9563V51.9582Z" fill="#004A91"/>
<path fill-rule="evenodd" clip-rule="evenodd" d="M54.1516 45.0162C50.6517 45.0162 42.1953 47.9604 42.1953 50.7127C42.1953 53.465 45.0311 55.6962 48.531 55.6962C56.0327 55.6962 58.1307 45.0162 54.1516 45.0162Z" fill="#002953"/>
<path fill-rule="evenodd" clip-rule="evenodd" d="M55.257 47.0912L43.48 51.3203C43.48 51.3203 46.2365 54.8966 51.1175 53.0248C55.3797 51.3918 55.257 47.0894 55.257 47.0894V47.0912Z" fill="white"/>
<path fill-rule="evenodd" clip-rule="evenodd" d="M63.3248 32.9554V39.4458C63.3248 39.4458 58.4362 42.0665 50.4025 44.4839C40.3292 47.5128 37.8255 53.2017 37.8255 53.2017L35.0029 50.3196V45.5845C35.0029 45.5845 41.2216 42.1304 44.8706 40.7439C51.2025 38.3415 59.9871 34.9327 63.3248 32.9554Z" fill="#0099FF"/>
<path fill-rule="evenodd" clip-rule="evenodd" d="M25.5273 75.1262C25.5273 75.1262 30.848 76.0669 34.9497 76.0669C39.0515 76.0669 44.3721 75.1262 44.3721 75.1262C44.3721 75.1262 42.1703 77.4759 34.9497 77.4759C27.7292 77.4759 25.5273 75.1262 25.5273 75.1262Z" fill="#490009"/>
<path fill-rule="evenodd" clip-rule="evenodd" d="M41.0739 79.8257C41.0739 79.8257 38.2532 80.7663 34.9496 80.7663C31.6459 80.7663 28.8252 79.8257 28.8252 79.8257C28.8252 79.8257 31.9459 83.116 34.9496 83.116C37.9532 83.116 41.0739 79.8257 41.0739 79.8257Z" fill="#B10016"/>
<path fill-rule="evenodd" clip-rule="evenodd" d="M35.0158 72.5037C33.346 72.5037 28.8726 69.1776 28.8726 69.1776L35.0158 70.0524L41.159 69.1776C41.159 69.1776 36.6856 72.5037 35.0158 72.5037Z" fill="#490009"/>
<defs>
<linearGradient id="paint0_linear_535_4711" x1="37.354" y1="69.1777" x2="56.6705" y2="69.1777" gradientUnits="userSpaceOnUse">
<stop stop-color="#FF593F" stop-opacity="0.1"/>
<stop offset="1" stop-color="#FF593F"/>
</linearGradient>
<linearGradient id="paint1_linear_535_4711" x1="53.6384" y1="83.6295" x2="53.6384" y2="25.6787" gradientUnits="userSpaceOnUse">
<stop stop-color="#FF6345"/>
<stop offset="0.34" stop-color="#FE001F" stop-opacity="0.66"/>
<stop offset="1" stop-color="#FE001F" stop-opacity="0.1"/>
</linearGradient>
<linearGradient id="paint2_linear_535_4711" x1="20.9072" y1="92.2966" x2="20.9072" y2="25.4229" gradientUnits="userSpaceOnUse">
<stop stop-opacity="0.1"/>
<stop offset="1"/>
</linearGradient>
<linearGradient id="paint3_linear_535_4711" x1="13.3281" y1="55.9597" x2="32.6446" y2="55.9597" gradientUnits="userSpaceOnUse">
<stop offset="0.42"/>
<stop offset="0.9" stop-opacity="0.1"/>
</linearGradient>
</defs>
</svg>
